<?xml version="1.0" encoding="utf-8"?>
<svg height="48" viewBox="0 -960 960 960" width="48" xmlns="http://www.w3.org/2000/svg">
  <defs>
    <linearGradient gradientUnits="userSpaceOnUse" x1="479.5" y1="-920" x2="479.5" y2="-120" id="gradient-1">
      <stop offset="0" style="stop-color: rgb(218, 85, 85);"/>
      <stop offset="0.142" style="stop-color: rgb(203, 153, 78);"/>
      <stop offset="0.318" style="stop-color: rgb(183, 185, 70);"/>
      <stop offset="0.474" style="stop-color: rgb(82, 175, 63);"/>
      <stop offset="0.626" style="stop-color: rgb(56, 165, 119);"/>
      <stop offset="0.756" style="stop-color: rgb(77, 157, 157);"/>
      <stop offset="0.862" style="stop-color: rgb(94, 112, 149);"/>
      <stop offset="1" style="stop-color: rgb(86, 41, 141);"/>
    </linearGradient>
  </defs>
  <path d="M480-441q-66 0-108-42t-42-108q0-66 42-108t108-42q66 0 108 42t42 108q0 66-42 108t-108 42ZM160-120v-94q0-38 19-64.5t49-41.5q51-26 120.5-43T480-380q62 0 131 17t120 43q30 15 49.5 41.5T800-214v94H160Zm60-60h520v-34q0-16.31-8.5-29.655Q723-257 707-266q-48-27-109-40.5T480-320q-57 0-118.5 14.5T252-266q-14 7-23 21.5t-9 30.5v34Zm260-321q39 0 64.5-25.5T570-591q0-39-25.5-64.5T480-681q-39 0-64.5 25.5T390-591q0 39 25.5 64.5T480-501ZM39-779v-60q17 0 31-6.581T95-863.3q11-11.138 17-25.312 6-14.175 6-31.388h61q0 29-10.938 54.575-10.937 25.575-30.187 44.976-19.25 19.402-44.625 30.425Q67.875-779 39-779Zm0 140v-60q46 0 86.21-17.394Q165.42-733.789 195-764q30-30 47-70.007 17-40.008 17-85.993h61q0 58-22 109.5T238-721q-38 38-89.027 60Q97.945-639 39-639Zm881 0q-58 0-109.5-22T721-721q-38-38-60-89.467T639-920h61q0 46 17.127 85.875T764-764q30.282 29.746 70.2 46.873Q874.118-700 920-700v61Zm0-141q-29 0-54.346-10.938-25.347-10.937-44.575-30.187-19.229-19.25-30.154-44.625T780-920h60q0 17 6.5 31t17.5 25q11 11 25 17.5t31 6.5v60ZM480-591Zm0 411Z" style="fill: url(#gradient-1);"/>
</svg>